<svg xmlns="http://www.w3.org/2000/svg" viewBox="0 0 400 300" width="400" height="300">
<defs><radialGradient id="g" cx="35%" cy="25%" r="90%"><stop offset="0" stop-color="#fff" stop-opacity=".55"/><stop offset="1" stop-color="#fff" stop-opacity="0"/></radialGradient>
<filter id="s" x="-20%" y="-20%" width="140%" height="140%"><feGaussianBlur stdDeviation="6"/></filter></defs>
<rect width="400" height="300" fill="#f3edd8"/><rect width="400" height="300" fill="url(#g)"/>
<ellipse cx="200" cy="240" rx="130" ry="12" fill="#4a3f36" opacity=".12" filter="url(#s)"/><ellipse cx="140" cy="160" rx="70" ry="54" fill="#e8c65a"/><ellipse cx="126" cy="144" rx="26" ry="14" fill="#f3dc8c"/><path d="M184 114c12-10 26-10 34-2-10 8-22 8-34 2z" fill="#7aa36b"/><ellipse cx="258" cy="176" rx="70" ry="54" fill="#e8c65a"/><ellipse cx="244" cy="160" rx="26" ry="14" fill="#f3dc8c"/><path d="M302 130c12-10 26-10 34-2-10 8-22 8-34 2z" fill="#7aa36b"/>
</svg>